<svg viewBox="0 0 146 307" fill="none" xmlns="http://www.w3.org/2000/svg"><g clip-path="url(#clip0)"><path d="M124.634 137.788L129.144 143.56C130.756 145.623 133.735 145.989 135.798 144.377L141.57 139.867C143.633 138.255 143.999 135.277 142.387 133.214L137.877 127.441C136.265 125.378 133.287 125.012 131.224 126.624L125.451 131.134C123.388 132.746 123.023 135.725 124.634 137.788Z" fill="#FFC6B7"/><path d="M129.982 150.259C125.733 148.712 123.542 144.014 125.089 139.765L127.066 134.334C128.612 130.085 133.31 127.895 137.559 129.441C141.808 130.988 143.999 135.686 142.453 139.935L140.476 145.366C138.929 149.615 134.231 151.805 129.982 150.259Z" fill="#FFC6B7"/><path d="M124.459 165.461C120.21 163.914 118.019 159.216 119.566 154.967L125.435 138.842L140.822 144.442L134.953 160.567C133.406 164.816 128.708 167.007 124.459 165.461Z" fill="#2FE3FF"/><path d="M134.264 156.396C132.792 152.121 128.133 149.849 123.857 151.321L108.014 156.776C103.739 158.248 101.466 162.907 102.938 167.183C104.41 171.458 109.07 173.731 113.345 172.259L129.188 166.803C133.464 165.331 135.736 160.672 134.264 156.396Z" fill="#2FE3FF"/><path d="M30.424 173.513L103.74 163.209C108.218 162.58 112.358 165.699 112.987 170.177L113.077 170.817C113.707 175.295 110.587 179.435 106.109 180.064L32.7929 190.368C28.3152 190.997 24.1751 187.878 23.5458 183.4L23.4559 182.76C22.8266 178.282 25.9463 174.142 30.424 173.513Z" fill="#2FE3FF"/><path d="M70.6838 259.235C69.1608 256.89 69.8273 253.754 72.1725 252.231L84.4598 244.252C86.805 242.729 89.9408 243.395 91.4638 245.741C92.9868 248.086 92.3202 251.222 89.9751 252.745L77.6878 260.724C75.3426 262.247 72.2068 261.581 70.6838 259.235Z" fill="#535353"/><path d="M43.0003 216.374C45.6109 217.376 46.9149 220.304 45.9127 222.915L40.6623 236.593C39.6602 239.203 36.7315 240.507 34.1209 239.505C31.5103 238.503 30.2064 235.574 31.2085 232.964L36.459 219.286C37.4611 216.675 40.3897 215.371 43.0003 216.374Z" fill="#535353"/><path d="M60.7969 90.8899C67.7496 89.9127 74.1774 94.7716 75.1563 101.737L75.4223 103.629L50.246 107.168L49.98 105.275C49.0012 98.3099 53.8442 91.867 60.7969 90.8899Z" fill="#FF9600"/><path d="M75.8529 101.393C83.2747 100.35 88.4603 93.5814 87.4336 86.276C86.4069 78.9706 79.5565 73.8936 72.1347 74.9367C64.7095 75.9802 59.5238 82.7488 60.5505 90.0542C61.5772 97.3596 68.4277 102.437 75.8529 101.393Z" fill="#FF9600"/><path d="M87.0426 99.603L39.2504 106.32C30.295 107.578 24.0555 115.858 25.3141 124.814L38.3578 217.625C39.6164 226.58 47.8964 232.819 56.8519 231.561L104.644 224.844C113.599 223.586 119.839 215.305 118.58 206.35L105.537 113.539C104.278 104.584 95.998 98.3444 87.0426 99.603Z" fill="#FFC6B7"/><path fill-rule="evenodd" clip-rule="evenodd" d="M41.2901 106.033L43.943 124.909C44.6882 130.211 40.9938 135.114 35.6912 135.859L27.0368 137.075L25.3137 124.814C24.0551 115.859 30.2946 107.579 39.25 106.32L41.2901 106.033Z" fill="#FFB67A"/><path fill-rule="evenodd" clip-rule="evenodd" d="M112.973 166.452L118.58 206.35C119.839 215.306 113.599 223.586 104.644 224.844L56.8515 231.561C47.8961 232.82 39.616 226.58 38.3574 217.625L32.75 177.727L112.973 166.452Z" fill="#0084C2"/><path fill-rule="evenodd" clip-rule="evenodd" d="M111.441 155.571L115.729 186.081L35.5066 197.356L31.2188 166.845L111.441 155.571Z" fill="#2FE3FF"/><path d="M101.102 137.441C105.049 136.887 107.8 133.237 107.245 129.289C106.69 125.342 103.04 122.592 99.0928 123.146C95.1454 123.701 92.395 127.351 92.9498 131.298C93.5046 135.246 97.1544 137.996 101.102 137.441Z" fill="#FFC6B7"/><path d="M28.2854 147.247C32.2329 146.692 34.9832 143.042 34.4284 139.095C33.8736 135.147 30.2239 132.397 26.2764 132.952C22.3289 133.506 19.5786 137.156 20.1334 141.104C20.6882 145.051 24.338 147.801 28.2854 147.247Z" fill="#FFC6B7"/><path d="M57.8645 110.957C63.4204 110.176 68.5573 114.047 69.3381 119.603L70.1981 125.722C70.979 131.278 67.108 136.415 61.5521 137.196C55.9962 137.977 50.8593 134.106 50.0785 128.55L49.2185 122.431C48.4377 116.875 52.3086 111.738 57.8645 110.957Z" fill="white"/><path d="M59.4577 116.541C61.952 116.19 64.2582 117.928 64.6088 120.422L65.406 126.095C65.7566 128.589 64.0187 130.895 61.5244 131.246C59.0301 131.597 56.7239 129.859 56.3734 127.364L55.6278 122.06C55.7649 122.056 55.9031 122.044 56.0421 122.025C58.0453 121.743 59.4409 119.891 59.1594 117.888C59.0989 117.457 58.9656 117.055 58.7739 116.691C58.9943 116.624 59.2227 116.574 59.4577 116.541Z" fill="#3D3D3D"/><path d="M79.7669 107.879C74.211 108.66 70.34 113.797 71.1208 119.353L71.9808 125.472C72.7617 131.028 77.8986 134.899 83.4545 134.118C89.0104 133.337 92.8813 128.2 92.1005 122.644L91.2405 116.525C90.4597 110.969 85.3227 107.098 79.7669 107.879Z" fill="white"/><path d="M78.4695 114.153C78.1721 114.195 77.8854 114.265 77.6117 114.359C77.7953 114.716 77.923 115.108 77.9819 115.527C78.2634 117.531 76.8678 119.383 74.8646 119.664C74.7901 119.675 74.7158 119.683 74.6419 119.689L75.3851 124.977C75.7356 127.471 78.0419 129.209 80.5362 128.859C83.0305 128.508 84.7684 126.202 84.4178 123.708L83.6206 118.035C83.27 115.541 80.9638 113.803 78.4695 114.153Z" fill="#3D3D3D"/><path d="M39.9219 133.686C50.879 132.087 60.8448 133.365 69.7653 137.535L70.0353 137.663L68.0933 141.749C60.0214 137.913 50.9686 136.698 40.881 138.119L40.575 138.163L39.9219 133.686Z" fill="#FFC6B7"/><path d="M65.6496 141.315C66.1103 140.939 66.7889 141.007 67.1654 141.468C69.4774 144.297 72.1417 144.916 75.4571 143.395C75.9979 143.147 76.6374 143.384 76.8855 143.925C77.1336 144.466 76.8964 145.105 76.3556 145.353C72.1484 147.283 68.4292 146.419 65.497 142.831C65.1206 142.37 65.1889 141.692 65.6496 141.315Z" fill="#EE9583"/><path d="M76.849 138.805C78.7927 137.772 79.5287 135.355 78.4929 133.407C77.4572 131.459 71.4881 128.723 71.4881 128.723C71.4881 128.723 70.4185 135.201 71.4542 137.149C72.49 139.097 74.9054 139.838 76.849 138.805Z" fill="#EE9583"/><path d="M8.72689 186.434L3.63821 191.704C1.81971 193.587 1.87209 196.588 3.7552 198.406L9.0247 203.495C10.9078 205.313 13.9085 205.261 15.727 203.378L20.8157 198.109C22.6342 196.225 22.5819 193.225 20.6988 191.406L15.4293 186.317C13.5461 184.499 10.5454 184.551 8.72689 186.434Z" fill="#FFC6B7"/><path d="M15.634 179.141C19.9805 180.387 22.4938 184.921 21.2474 189.268L19.6544 194.823C18.4081 199.17 13.8741 201.683 9.52758 200.436C5.18104 199.19 2.66783 194.656 3.91418 190.31L5.50716 184.754C6.75351 180.408 11.2875 177.894 15.634 179.141Z" fill="#FFC6B7"/><path d="M19.3237 164.502C23.6914 165.672 26.2833 170.162 25.113 174.529L20.6717 191.104L4.85509 186.866L9.29641 170.291C10.4667 165.924 14.9561 163.332 19.3237 164.502Z" fill="#2FE3FF"/><path d="M42.7872 175.899C42.1579 180.376 38.0178 183.496 33.5401 182.867L16.9468 180.535C12.4691 179.905 9.34938 175.765 9.97868 171.288C10.608 166.81 14.748 163.69 19.2257 164.32L35.819 166.652C40.2967 167.281 43.4165 171.421 42.7872 175.899Z" fill="#2FE3FF"/><path d="M110.367 155.963L112.279 155.355L114.219 171.763L112.924 172.462L110.367 155.963Z" fill="#2FE3FF"/><path d="M33.8539 190.174L36.4007 189.789L35.1273 166.509L28.9805 167.826L33.8539 190.174Z" fill="#2FE3FF"/><path d="M87.7653 164.517C86.5292 164.349 85.3889 165.197 85.1896 166.422L85.1807 166.481L84.4636 171.734C84.1932 173.715 82.9531 175.429 81.1609 176.306L81.0765 176.347C79.9295 176.886 79.4371 178.254 79.9767 179.401C80.5163 180.548 81.8836 181.04 83.0306 180.501C86.2421 178.99 88.4803 175.971 88.9963 172.465L89.0119 172.355L89.7289 167.102C89.9004 165.846 89.0212 164.689 87.7653 164.517Z" fill="white"/><path d="M78.1781 166.246C79.3088 166.775 79.807 168.107 79.3098 169.244L79.2858 169.297L77.2162 173.726C76.2411 175.813 74.1869 177.185 71.8858 177.286C71.3337 177.31 70.841 177.635 70.6004 178.129L70.5772 178.179L69.8206 179.89C69.3079 181.049 67.9524 181.573 66.7932 181.06C65.6517 180.556 65.126 179.234 65.5996 178.087L65.6225 178.033L66.3791 176.322C67.3035 174.232 69.3183 172.838 71.5947 172.704L71.6847 172.7C72.2581 172.674 72.7721 172.343 73.0322 171.834L73.0574 171.783L75.127 167.354C75.6554 166.223 76.9878 165.725 78.1249 166.222L78.1781 166.246Z" fill="white"/><rect opacity="0.3" x="46.5938" y="270.037" width="53.6881" height="8.18294" rx="4.09147" fill="#AFAFAF"/></g><defs><clipPath id="clip0"><rect width="145.696" height="306.162" fill="white" transform="translate(0.0859375)"/></clipPath></defs></svg>