<svg viewBox="0 0 42 56" fill="none" xmlns="http://www.w3.org/2000/svg"><path d="M31.3 12.575H10.686a6.56 6.56 0 0 0-6.56 6.56v21.028c0 .596-.008 2.125-1.597 2.242h-.38a.703.703 0 0 0-.702.703 7.106 7.106 0 0 0 7.106 7.106H33.2a7.106 7.106 0 0 0 7.106-7.106.703.703 0 0 0-.702-.703h-.146c-1.533-.113-1.595-1.54-1.597-2.175V19.134a6.56 6.56 0 0 0-6.56-6.56v.001z" fill="#FFB100"/><path d="M12.559 17.104h16.32a6.171 6.171 0 0 1 6.17 6.169v26.706H6.389V23.273a6.17 6.17 0 0 1 6.17-6.17v.001z" fill="#FFC6B7"/><path d="M32.82 17.564c2.483.922 4.23 3.13 4.23 5.709v3.424a3.24 3.24 0 0 1-4.655-2.917v-4.607c0-.586.155-1.135.427-1.61l-.001.001zm-23.765.238c.194.416.303.88.303 1.371v4.607a3.24 3.24 0 0 1-3.967 3.16v-3.667c0-2.378 1.486-4.442 3.664-5.471z" fill="#FFB100"/><path d="M20.452 24.81a3.682 3.682 0 1 0-7.364 0v2.24c0 .566.128 1.103.357 1.582 1.72.128 3.17.787 4.316 1.965a3.684 3.684 0 0 0 2.69-3.548v-2.24.001z" fill="#fff"/><path d="M17.54 23.666a1.212 1.212 0 0 1-1.402 1.195c-.002.035-.003.07-.003.106v2.077a1.653 1.653 0 1 0 3.306 0v-2.077a1.654 1.654 0 0 0-1.945-1.627c.029.104.044.213.044.326z" fill="#3D3D3D"/><path fill-rule="evenodd" clip-rule="evenodd" d="M25.438 21.128a3.682 3.682 0 0 0-3.682 3.682v2.24a3.682 3.682 0 1 0 7.364 0v-2.24a3.682 3.682 0 0 0-3.682-3.682z" fill="#fff"/><path d="M22.78 24.79a1.21 1.21 0 0 0 1.605-1.475h.04c.912 0 1.652.74 1.652 1.652v2.077a1.653 1.653 0 0 1-3.306 0v-2.077c0-.06.003-.118.01-.176z" fill="#3D3D3D"/><path fill-rule="evenodd" clip-rule="evenodd" d="M21.078 32.722a1.64 1.64 0 0 0 1.64-1.64c0-.905-1.64-3.046-1.64-3.046s-1.64 2.141-1.64 3.046c0 .906.734 1.64 1.64 1.64z" fill="#F3A577"/><path d="M5.102 31.004a3.163 3.163 0 1 0 0-6.327 3.163 3.163 0 0 0 0 6.327zm31.47 0a3.163 3.163 0 1 0 0-6.326 3.163 3.163 0 0 0 0 6.326z" fill="#FFC6B7"/><path d="M13.079 31.22a2.656 2.656 0 0 1 3.256.96c.447.516 1.075.98 1.91 1.085.082.002.168.003.258.003h.044a2.655 2.655 0 1 1-.044 5.31c-3.237 0-5.692-1.271-6.811-3.868a2.657 2.657 0 0 1 1.387-3.49z" fill="#702323"/><path d="M21.152 36.076a2.655 2.655 0 0 1-2.65 2.502c-.963 0-1.856-.112-2.666-.338a4.8 4.8 0 0 1 5.316-2.164z" fill="#B23232"/><path d="M18.886 33.296a1.403 1.403 0 0 1-1.087.514h-1.093a1.405 1.405 0 0 1-1.289-.843 1.406 1.406 0 0 1-1.288.843h-1.093c-.68 0-1.247-.482-1.378-1.124a2.656 2.656 0 0 1 4.676-.507c.447.517 1.076.981 1.91 1.086h.01c.08.002.162.003.248.003h.044c.115.002.23.012.34.028z" fill="#fff"/><path d="M28.02 12.028a7.028 7.028 0 1 0-14.055 0 7.028 7.028 0 0 0 14.056 0z" fill="#FFB100"/><path d="M13.62 6.855l6.716 7.32a.776.776 0 0 1-.26 1.23c-2.308 1.03-5.063.449-6.8-1.485-1.737-1.934-2.024-4.74-.76-6.934.262-.457.75-.523 1.103-.13v-.001z" fill="#FFB100"/><path d="M37.776 15.698H4.202c-.56 0-1.014.455-1.014 1.015v2.109c0 .56.454 1.015 1.014 1.015h33.574c.56 0 1.014-.454 1.014-1.015v-2.109c0-.56-.454-1.015-1.014-1.015zM35.673 46.387H5.921a.86.86 0 0 0-.859.86v2.967a.86.86 0 0 0 .86.859h29.752a.861.861 0 0 0 .86-.86v-2.967a.858.858 0 0 0-.86-.859z" fill="#FF4B4B"/><path fill-rule="evenodd" clip-rule="evenodd" d="M20.157 46.231h1.904c.29 0 .54.198.608.478l1.26 5.232a.624.624 0 0 1-.606.771h-4.428a.626.626 0 0 1-.607-.77l1.26-5.233a.625.625 0 0 1 .609-.478z" fill="#EBE3E3"/></svg>