<svg viewBox="0 0 147 307" fill="none" xmlns="http://www.w3.org/2000/svg"><g clip-path="url(#clip0)"><path fill-rule="evenodd" clip-rule="evenodd" d="M56.1641 265.393C56.1641 262.691 58.3569 260.502 61.0619 260.502H86.0956C88.8007 260.502 90.9935 262.691 90.9935 265.393C90.9935 268.094 88.8007 270.284 86.0956 270.284H61.0619C58.3569 270.284 56.1641 268.094 56.1641 265.393Z" fill="#FF9500"/><path d="M73.036 84.0612C81.7522 84.0612 88.8181 77.0458 88.8181 68.3917C88.8181 59.7377 81.7522 52.7222 73.036 52.7222C64.3198 52.7222 57.2539 59.7377 57.2539 68.3917C57.2539 77.0458 64.3198 84.0612 73.036 84.0612Z" fill="#3D3D3D"/><path d="M129.54 211.946H17.0631C11.9433 211.946 7.79297 216.09 7.79297 221.203C7.79297 226.315 11.9433 230.46 17.0631 230.46H129.54C134.66 230.46 138.811 226.315 138.811 221.203C138.811 216.09 134.66 211.946 129.54 211.946Z" fill="#FFCBA3"/><path d="M120.889 170.651H25.7156C12.4042 170.651 1.61328 181.427 1.61328 194.72C1.61328 208.012 12.4042 218.788 25.7156 218.788H120.889C134.2 218.788 144.991 208.012 144.991 194.72C144.991 181.427 134.2 170.651 120.889 170.651Z" fill="#FFB100"/><path fill-rule="evenodd" clip-rule="evenodd" d="M65.509 157.971H81.6539C107.953 157.971 129.272 179.26 129.272 205.523V247.352C129.272 250.512 126.707 253.075 123.542 253.075H23.6215C20.4564 253.075 17.8906 250.512 17.8906 247.352V205.523C17.8906 179.26 39.2101 157.971 65.509 157.971Z" fill="#FFB100"/><path fill-rule="evenodd" clip-rule="evenodd" d="M129.272 205.522V242.749H94.8058C92.4013 242.749 90.4521 240.802 90.4521 238.401V170.651L114.028 170.65C123.404 179.334 129.272 191.744 129.272 205.522ZM54.897 170.651V238.401C54.897 240.802 52.9478 242.749 50.5433 242.749H17.8906V205.522C17.8906 191.744 23.7589 179.334 33.1356 170.65L54.897 170.651Z" fill="#FF9500"/><path d="M72.2585 202.399C74.7312 202.399 76.7357 200.397 76.7357 197.928C76.7357 195.459 74.7312 193.457 72.2585 193.457C69.7858 193.457 67.7812 195.459 67.7812 197.928C67.7812 200.397 69.7858 202.399 72.2585 202.399Z" fill="white"/><path d="M74.3047 170.017C74.3047 164.665 69.9596 160.326 64.5996 160.326C59.2396 160.326 54.8945 164.665 54.8945 170.017V176.566C54.8945 181.918 59.2396 186.257 64.5996 186.257C69.9596 186.257 74.3047 181.918 74.3047 176.566V170.017Z" fill="white"/><path d="M90.4492 170.017C90.4492 164.665 86.1041 160.326 80.7442 160.326C75.3842 160.326 71.0391 164.665 71.0391 170.017V176.566C71.0391 181.918 75.3842 186.257 80.7442 186.257C86.1041 186.257 90.4492 181.918 90.4492 176.566V170.017Z" fill="white"/><path fill-rule="evenodd" clip-rule="evenodd" d="M54.1138 87.8654H91.7226C109.724 87.8654 124.317 102.438 124.317 120.414C124.317 138.39 109.724 152.963 91.7226 152.963H54.1138C36.1125 152.963 21.5195 138.39 21.5195 120.414C21.5195 102.438 36.1125 87.8654 54.1138 87.8654Z" fill="#3D3D3D"/><path fill-rule="evenodd" clip-rule="evenodd" d="M91.7226 152.963H54.1138C37.5078 152.963 23.8023 140.562 21.7773 124.528H124.059C122.034 140.562 108.329 152.963 91.7226 152.963Z" fill="#CAC9C9"/><path fill-rule="evenodd" clip-rule="evenodd" d="M73.3076 100.365C95.5991 100.365 113.67 118.411 113.67 140.671V170.832H32.9453V140.671C32.9453 118.411 51.0161 100.365 73.3076 100.365Z" fill="#FFCBA3"/><path d="M104.331 97.4663H45.375V107.067H104.331V97.4663Z" fill="#3D3D3D"/><path fill-rule="evenodd" clip-rule="evenodd" d="M63.8547 116.304C68.5034 116.304 72.2719 120.067 72.2719 124.709V129.895C72.2719 134.538 68.5034 138.301 63.8547 138.301C59.206 138.301 55.4375 134.538 55.4375 129.895V124.709C55.4375 120.067 59.206 116.304 63.8547 116.304Z" fill="white"/><path d="M92.2055 124.709C92.2055 120.067 88.437 116.304 83.7883 116.304C79.1396 116.304 75.3711 120.067 75.3711 124.709V129.895C75.3711 134.538 79.1396 138.301 83.7883 138.301C88.437 138.301 92.2055 134.538 92.2055 129.895V124.709Z" fill="white"/><path fill-rule="evenodd" clip-rule="evenodd" d="M52.0443 133.878C61.5124 134.535 68.0316 135.962 71.6017 138.16C75.1718 140.358 72.1653 146.72 62.5821 157.246L46.5703 143.52L52.0443 133.878Z" fill="#FFCBA3"/><path fill-rule="evenodd" clip-rule="evenodd" d="M73.8511 141.486C76.1053 141.486 77.9327 139.642 77.9327 137.367C77.9327 135.092 73.8511 129.711 73.8511 129.711C73.8511 129.711 69.7695 135.092 69.7695 137.367C69.7695 139.642 71.5969 141.486 73.8511 141.486Z" fill="#E89665"/><path fill-rule="evenodd" clip-rule="evenodd" d="M66.1581 121.225C68.2518 121.225 69.9491 122.92 69.9491 125.011V129.766C69.9491 131.857 68.2518 133.552 66.1581 133.552C64.0644 133.552 62.3672 131.857 62.3672 129.766V125.011L62.375 124.766C62.5178 124.79 62.665 124.802 62.8149 124.802C64.348 124.802 65.5908 123.561 65.5908 122.03C65.5908 121.772 65.5554 121.522 65.4892 121.284C65.7063 121.246 65.9299 121.225 66.1581 121.225Z" fill="#3D3D3D"/><path fill-rule="evenodd" clip-rule="evenodd" d="M81.9159 121.225C84.0096 121.225 85.7069 122.92 85.7069 125.011V129.766C85.7069 131.857 84.0096 133.552 81.9159 133.552C79.8223 133.552 78.125 131.857 78.125 129.766V125.011C78.125 124.874 78.1323 124.739 78.1464 124.606C78.4623 124.733 78.8081 124.802 79.1701 124.802C80.7032 124.802 81.946 123.561 81.946 122.03C81.946 121.751 81.9047 121.482 81.8279 121.228L81.9159 121.225Z" fill="#3D3D3D"/><path fill-rule="evenodd" clip-rule="evenodd" d="M52.3555 126.88C62.2218 126.88 69.0837 126.88 72.9414 126.88C76.2147 126.88 74.7061 117.507 69.4997 114.364C65.5021 111.951 57.9284 115.214 57.1509 115.214C55.9575 115.214 54.3591 119.103 52.3555 126.88Z" fill="#FFCBA3"/><path fill-rule="evenodd" clip-rule="evenodd" d="M71.582 125.646C81.4483 125.646 88.3103 125.646 92.168 125.646C95.4413 125.646 93.9327 116.634 88.7263 113.492C84.7287 111.08 77.155 114.342 76.3775 114.342C75.1841 114.342 73.5856 118.11 71.582 125.646Z" fill="#FFCBA3"/><path d="M71.1993 117.558C75.8759 112.903 82.5811 110.879 89.0713 112.187C90.5769 112.49 91.5512 113.955 91.2474 115.459C90.9479 116.941 89.5169 117.908 88.0332 117.643L87.9714 117.632C83.2589 116.682 78.3887 118.176 75.0233 121.595L74.9218 121.699L74.3035 122.341C73.7967 122.866 73.1041 123.171 72.3758 123.19L72.3003 123.191H56.6756C55.1396 123.191 53.8945 121.948 53.8945 120.414C53.8945 118.901 55.1062 117.671 56.6135 117.638L56.6756 117.637L71.121 117.637L71.1993 117.558Z" fill="#3D3D3D"/><path d="M100.445 126.168C100.901 125.978 101.426 126.194 101.616 126.65C101.8 127.092 101.603 127.599 101.173 127.802L101.134 127.819L96.5231 129.737L101.153 131.792C101.592 131.987 101.796 132.491 101.624 132.933L101.608 132.973C101.413 133.411 100.908 133.615 100.466 133.443L100.426 133.427L93.8951 130.528C93.1902 130.215 93.1887 129.225 93.8748 128.903L93.9143 128.886L100.445 126.168Z" fill="#F3A577"/><path d="M45.8065 126.168C45.35 125.978 44.8257 126.194 44.6355 126.65C44.4509 127.092 44.6488 127.599 45.078 127.802L45.1177 127.819L49.7282 129.737L45.0984 131.792C44.6598 131.987 44.4552 132.491 44.6271 132.933L44.6438 132.973C44.8388 133.411 45.343 133.615 45.7857 133.443L45.8258 133.427L52.3563 130.528C53.0611 130.215 53.0627 129.225 52.3766 128.903L52.337 128.886L45.8065 126.168Z" fill="#F3A577"/><path fill-rule="evenodd" clip-rule="evenodd" d="M34.7411 99.6403H42.7613C47.4595 99.6403 51.2681 103.444 51.2681 108.135V116.144C51.2681 120.836 47.4595 124.639 42.7613 124.639H34.7411C30.043 124.639 26.2344 120.836 26.2344 116.144V108.135C26.2344 103.444 30.043 99.6403 34.7411 99.6403Z" fill="#3D3D3D"/><path fill-rule="evenodd" clip-rule="evenodd" d="M103.854 98.7344H110.786C115.484 98.7344 119.293 102.538 119.293 107.229V116.144C119.293 120.836 115.484 124.639 110.786 124.639H103.854C99.1563 124.639 95.3477 120.836 95.3477 116.144V107.229C95.3477 102.538 99.1563 98.7344 103.854 98.7344Z" fill="#3D3D3D"/><path d="M66.0704 150.711C64.0099 150.178 62.1597 150.823 60.7009 152.546C60.2858 153.036 60.3474 153.77 60.8384 154.184C61.3294 154.599 62.0639 154.537 62.4789 154.047C63.3757 152.987 64.3178 152.659 65.4864 152.961C66.6793 153.27 68.1098 154.236 69.7387 155.876L69.9312 156.073C70.0924 156.239 70.2555 156.411 70.4205 156.59C70.8557 157.063 71.5921 157.094 72.0653 156.659C72.5385 156.224 72.5692 155.489 72.134 155.016C72.0246 154.898 71.9156 154.781 71.807 154.667L71.5906 154.442L71.3754 154.223C69.4795 152.316 67.7245 151.139 66.0704 150.711Z" fill="#E89665"/><path d="M74.6861 162.993C75.1026 162.727 75.6564 162.848 75.923 163.264C76.1896 163.68 76.068 164.233 75.6515 164.499C70.8222 167.586 65.9102 167.586 61.0808 164.499C60.6643 164.233 60.5427 163.68 60.8093 163.264C61.0759 162.848 61.6297 162.727 62.0462 162.993C66.2871 165.703 70.4453 165.703 74.6861 162.993Z" fill="#F7B286"/><rect opacity="0.3" x="42.1445" y="270.037" width="62.5571" height="8.18292" rx="4.09146" fill="#AFAFAF"/></g><defs><clipPath id="clip0"><rect width="145.7" height="306.162" fill="white" transform="translate(0.574219)"/></clipPath></defs></svg>