<svg viewBox="0 0 147 307" fill="none" xmlns="http://www.w3.org/2000/svg"><g clip-path="url(#clip0)"><path fill-rule="evenodd" clip-rule="evenodd" d="M145.751 140.04C146.823 144.338 144.208 148.69 139.911 149.761L125.546 153.343C121.249 154.414 116.896 151.799 115.825 147.502V147.502C114.753 143.205 117.369 138.852 121.666 137.781L136.031 134.199C140.328 133.128 144.68 135.743 145.751 140.04V140.04Z" fill="#DA8E74"/><path fill-rule="evenodd" clip-rule="evenodd" d="M125.561 134.863C125.606 139.915 129.735 143.975 134.787 143.935V143.935L133.575 167.069C133.294 172.429 128.721 176.547 123.361 176.266V176.266C118.001 175.985 113.884 171.412 114.165 166.052L115.407 142.341C115.653 137.662 119.645 134.067 124.324 134.313L125.557 134.377L125.561 134.863Z" fill="#DA8E74"/><path fill-rule="evenodd" clip-rule="evenodd" d="M134.098 157.062L133.25 173.229C132.969 178.59 128.397 182.707 123.037 182.426V182.426C117.677 182.145 113.559 177.572 113.84 172.212L114.687 156.045L134.098 157.062Z" fill="#FFAADE"/><path fill-rule="evenodd" clip-rule="evenodd" d="M133.156 173.86C132.595 179.198 127.813 183.07 122.475 182.509L97.6357 179.899C92.2978 179.337 88.4253 174.555 88.9863 169.217V169.217C89.5474 163.879 94.3295 160.007 99.6674 160.568L124.507 163.179C129.845 163.74 133.718 168.522 133.156 173.86V173.86Z" fill="#FFAADE"/><path fill-rule="evenodd" clip-rule="evenodd" d="M117.898 142.243C116.457 140.899 116.378 138.642 117.722 137.201L122.953 131.591C124.297 130.151 126.554 130.072 127.995 131.415V131.415C129.435 132.759 129.514 135.016 128.171 136.457L122.939 142.067C121.596 143.508 119.339 143.586 117.898 142.243V142.243Z" fill="#DA8E74"/><path fill-rule="evenodd" clip-rule="evenodd" d="M20.3028 166.738C23.2786 161.031 30.1417 158.571 36.0656 161.087L67.6123 174.488C74.6836 177.492 77.3191 186.158 73.1172 192.59L58.0001 215.73C55.2528 219.936 50.2302 222.055 45.3007 221.09L13.1057 214.785C5.01685 213.201 0.726512 204.283 4.53737 196.974L20.3028 166.738Z" fill="#FFAADE"/><path fill-rule="evenodd" clip-rule="evenodd" d="M39.0088 57.3435C51.5921 55.7985 63.22 63.125 67.6181 74.4208L67.5727 74.3365C70.3683 79.7837 75.2826 81.8523 82.2394 81.107L82.6862 81.0556C82.8097 81.0404 82.9291 81.0277 83.0444 81.0173L83.2555 80.986L83.6497 80.9339C95.117 79.5259 105.55 87.6451 106.953 99.0687C108.356 110.492 100.196 120.894 88.7291 122.302C83.2491 122.975 78.0052 121.472 73.8702 118.473L74.1755 120.96C75.9847 135.695 65.6293 149.12 50.9804 151.16L50.3287 151.244C36.2376 152.974 23.3445 143.579 20.4605 129.943C11.3625 128.627 3.90618 121.396 2.73592 111.865C1.57017 102.371 7.0091 93.5821 15.4627 90.0759L15.162 87.6271C13.3528 72.8923 23.7082 59.4674 38.3571 57.4272L39.0088 57.3435Z" fill="#3D3D3D"/><circle cx="102.658" cy="116.958" r="7.61448" transform="rotate(-7 102.658 116.958)" fill="#DA8E74"/><path fill-rule="evenodd" clip-rule="evenodd" d="M52.8939 87.9403C78.2675 84.8249 101.362 102.869 104.478 128.242L113.465 201.433C116.58 226.806 98.5363 249.901 73.1627 253.017C47.7891 256.132 24.6941 238.089 21.5786 212.715L12.592 139.524C9.47647 114.151 27.5202 91.0558 52.8939 87.9403Z" fill="#DA8E74"/><path fill-rule="evenodd" clip-rule="evenodd" d="M28.1475 102.386L29.7592 115.512C30.5212 121.718 26.1079 127.367 19.9018 128.129C17.3395 128.444 14.8723 127.876 12.8047 126.665C14.463 116.118 19.7295 106.597 27.4378 99.5941C27.7851 100.471 28.0272 101.406 28.1475 102.386ZM101.247 116.005L101.424 116.439C96.6077 115.631 92.6897 111.745 92.0642 106.651L91.4065 101.288C95.4888 105.399 98.8209 110.291 101.145 115.763L101.247 116.005Z" fill="#3D3D3D"/><path fill-rule="evenodd" clip-rule="evenodd" d="M111.945 189.057L113.464 201.433C116.58 226.807 98.536 249.902 73.1624 253.017C47.7888 256.132 24.6938 238.089 21.5783 212.715L20.0586 200.339L111.945 189.057Z" fill="#2BE69C"/><path d="M47.6344 114.615C51.7138 114.408 55.6862 115.96 58.5458 118.876C59.294 119.639 58.784 120.928 57.7162 120.973C54.515 121.106 51.384 122.148 48.3072 124.115C47.7331 124.482 46.9703 124.314 46.6033 123.74C46.2363 123.166 46.4042 122.403 46.9782 122.036C49.3817 120.499 51.8425 119.459 54.355 118.922L54.6257 118.868L54.599 118.85C52.6846 117.657 50.4524 117.028 48.1638 117.066L47.7594 117.08L46.6283 117.137C45.9478 117.171 45.3682 116.648 45.3336 115.967C45.3016 115.335 45.7508 114.79 46.36 114.688L46.5033 114.673L47.6344 114.615Z" fill="#BB7057"/><path fill-rule="evenodd" clip-rule="evenodd" d="M16.6719 172.767L108.558 161.485L111.928 188.931L20.0419 200.214L16.6719 172.767Z" fill="#FFAADE"/><path fill-rule="evenodd" clip-rule="evenodd" d="M71.8904 181.128L83.0372 164.215L56.9829 167.414L71.8904 181.128Z" fill="#DA8E74"/><path fill-rule="evenodd" clip-rule="evenodd" d="M20.0391 200.185L111.925 188.903L113.195 199.245L21.3089 210.527L20.0391 200.185Z" fill="#A56644"/><path fill-rule="evenodd" clip-rule="evenodd" d="M43.4961 197.305L50.0594 196.499L51.9153 211.615L45.352 212.42L43.4961 197.305Z" fill="#2BE69C"/><path fill-rule="evenodd" clip-rule="evenodd" d="M96.1992 190.834L102.763 190.028L104.618 205.144L98.0552 205.95L96.1992 190.834Z" fill="#2BE69C"/><path fill-rule="evenodd" clip-rule="evenodd" d="M65.1358 110.492C64.4999 105.313 68.1828 100.599 73.3619 99.9628V99.9628C78.541 99.3269 83.2549 103.01 83.8908 108.189L84.5912 113.893C85.2271 119.072 81.5442 123.786 76.3651 124.422V124.422C71.186 125.058 66.4721 121.375 65.8362 116.196L65.1358 110.492Z" fill="white"/><path fill-rule="evenodd" clip-rule="evenodd" d="M68.3646 110.503C68.0791 108.178 69.7325 106.062 72.0577 105.776V105.776C74.3828 105.491 76.4991 107.144 76.7846 109.469L77.4339 114.757C77.7194 117.082 76.0659 119.199 73.7408 119.484V119.484C71.4157 119.77 69.2993 118.116 69.0138 115.791L68.3646 110.503Z" fill="#3D3D3D"/><path fill-rule="evenodd" clip-rule="evenodd" d="M58.3047 100.965L86.0382 97.5594L87.6987 111.084L59.9653 114.489L58.3047 100.965Z" fill="#DA8E74"/><path fill-rule="evenodd" clip-rule="evenodd" d="M49.7891 138.389L83.9977 134.189L86.049 150.896L51.8404 155.096L49.7891 138.389Z" fill="#3D3D3D"/><path fill-rule="evenodd" clip-rule="evenodd" d="M60.105 154.225C66.2346 149.317 71.4937 150.225 76.3887 152.225C81.2837 154.225 74.6264 162.796 74.6264 162.796L64.5212 164.037C64.5212 164.037 53.9755 159.132 60.105 154.225Z" fill="#DA8E74"/><path fill-rule="evenodd" clip-rule="evenodd" d="M65.8764 145.49C60.1219 141.753 58.4864 134.059 62.2234 128.305V128.305C65.9604 122.55 73.6547 120.915 79.4091 124.652L88.484 130.545C94.2385 134.282 95.8739 141.976 92.137 147.731V147.731C88.4 153.485 80.7057 155.121 74.9513 151.384L65.8764 145.49Z" fill="#3D3D3D"/><path fill-rule="evenodd" clip-rule="evenodd" d="M68.6052 145.156C73.2847 140.138 73.0102 132.276 67.9921 127.597V127.597C62.974 122.917 55.1126 123.192 50.4331 128.21L43.0535 136.124C38.3741 141.142 38.6486 149.003 43.6667 153.682V153.682C48.6848 158.362 56.5462 158.087 61.2256 153.069L68.6052 145.156Z" fill="#3D3D3D"/><path fill-rule="evenodd" clip-rule="evenodd" d="M68.7233 151.854C67.7155 149.692 68.6505 147.123 70.8119 146.115L74.1662 144.551C76.3275 143.543 78.8966 144.478 79.9045 146.64V146.64C80.9123 148.801 79.9772 151.37 77.8159 152.378L74.4616 153.942C72.3002 154.95 69.7311 154.015 68.7233 151.854V151.854Z" fill="#DA8E74"/><path fill-rule="evenodd" clip-rule="evenodd" d="M63.9434 158.281C61.8993 157.053 61.2379 154.4 62.4661 152.356L70.7264 138.609C71.9546 136.564 74.6074 135.903 76.6515 137.131V137.131C78.6957 138.359 79.3571 141.012 78.1288 143.056L69.8686 156.804C68.6403 158.848 65.9875 159.509 63.9434 158.281V158.281Z" fill="#DA8E74"/><circle cx="67.1289" cy="124.551" r="6.01143" transform="rotate(-7 67.1289 124.551)" fill="#DA8E74"/><path d="M47.373 100.749L47.5214 100.573C49.4341 98.1762 52.9272 97.7841 55.3236 99.6967C57.72 101.609 58.1121 105.103 56.1994 107.499C53.1027 111.379 48.5277 113.419 42.9083 113.693C39.8458 113.842 37.2421 111.481 37.0927 108.418C36.9475 105.443 39.1719 102.901 42.1065 102.621L42.3672 102.603C44.8585 102.481 46.4031 101.842 47.373 100.749Z" fill="#3D3D3D"/><path d="M69.4461 91.8082C74.5459 91.4082 78.8209 92.0271 82.2569 93.8563C84.9634 95.2971 85.9894 98.6592 84.5486 101.366C83.1514 103.99 79.9477 105.034 77.287 103.782L77.0392 103.657C75.7165 102.953 73.4795 102.629 70.3141 102.878C67.2574 103.117 64.5851 100.834 64.3454 97.7769C64.1125 94.8075 66.2609 92.2009 69.186 91.8346L69.4461 91.8082Z" fill="#3D3D3D"/><circle cx="8.78257" cy="128.485" r="7.61448" transform="rotate(-7 8.78257 128.485)" fill="#DA8E74"/><path fill-rule="evenodd" clip-rule="evenodd" d="M96.0846 270.177C92.8255 270.81 89.67 268.682 89.0366 265.423V265.423C88.4031 262.164 90.5315 259.008 93.7905 258.375L107.953 255.622C111.212 254.988 114.367 257.117 115.001 260.376V260.376C115.634 263.635 113.506 266.79 110.247 267.424L96.0846 270.177Z" fill="#1CB0F6"/><path fill-rule="evenodd" clip-rule="evenodd" d="M48.3708 270.144C45.0508 270.144 42.3594 267.453 42.3594 264.133V264.133C42.3594 260.813 45.0508 258.121 48.3708 258.121H62.7982C66.1183 258.121 68.8097 260.813 68.8097 264.133V264.133C68.8097 267.453 66.1183 270.144 62.7982 270.144L48.3708 270.144Z" fill="#1CB0F6"/><path fill-rule="evenodd" clip-rule="evenodd" d="M131.602 99.4439C134.116 100.617 135.26 103.486 134.156 105.853C133.53 107.197 132.314 108.09 130.92 108.396L124.108 110.338C123.216 110.593 122.274 110.204 121.815 109.415L121.73 109.252L118.792 102.947C117.992 101.628 117.829 99.9976 118.503 98.5537C119.606 96.1866 122.54 95.2183 125.054 96.391C126.34 96.9906 127.268 98.0339 127.72 99.2268C128.922 98.8045 130.316 98.8446 131.602 99.4439Z" fill="#FFAADE"/><path opacity="0.46296" fill-rule="evenodd" clip-rule="evenodd" d="M125.148 72.2702C126.905 71.9604 128.564 73.04 128.853 74.6814C129.002 75.524 128.761 76.3508 128.253 76.998L128.091 77.1873L125.213 80.704C124.842 81.1579 124.22 81.3047 123.691 81.081L123.549 81.0107L119.685 78.7969C118.779 78.4011 118.095 77.6096 117.918 76.6094C117.629 74.968 118.818 73.3863 120.575 73.0766C121.473 72.9182 122.345 73.123 123.022 73.5803C123.502 72.9186 124.251 72.4284 125.148 72.2702Z" fill="#FFAADE"/><path fill-rule="evenodd" clip-rule="evenodd" d="M11.7852 121.426L13.8825 122.754L27.5159 99.8229L25.52 96.4883L11.7852 121.426Z" fill="#3D3D3D"/><path fill-rule="evenodd" clip-rule="evenodd" d="M98.7407 110.374L98.3525 110.706L91.4575 101.581L91.2461 100.299L100.256 108.473L98.7407 110.374Z" fill="#3D3D3D"/><rect opacity="0.3" x="30.2109" y="270.037" width="88.0165" height="8.18294" rx="4.09147" fill="#AFAFAF"/></g><defs><clipPath id="clip0"><rect width="145.7" height="306.162" fill="white" transform="translate(0.875)"/></clipPath></defs></svg>